<svg width="400" height="191" viewBox="0 0 400 191" fill="none" xmlns="http://www.w3.org/2000/svg">
<rect width="400" height="191" fill="#838282"/>
<path d="M-267 -781C-267 -782.105 -266.105 -783 -265 -783H4756C4757.1 -783 4758 -782.105 4758 -781V3002C4758 3003.1 4757.1 3004 4756 3004H-265C-266.104 3004 -267 3003.1 -267 3002V-781Z" fill="#444444"/>
<path d="M-265 -783V-782H4756V-783V-784H-265V-783ZM4758 -781H4757V3002H4758H4759V-781H4758ZM4756 3004V3003H-265V3004V3005H4756V3004ZM-267 3002H-266V-781H-267H-268V3002H-267ZM-265 3004V3003C-265.552 3003 -266 3002.55 -266 3002H-267H-268C-268 3003.66 -266.657 3005 -265 3005V3004ZM4758 3002H4757C4757 3002.55 4756.55 3003 4756 3003V3004V3005C4757.66 3005 4759 3003.66 4759 3002H4758ZM4756 -783V-782C4756.55 -782 4757 -781.552 4757 -781H4758H4759C4759 -782.657 4757.66 -784 4756 -784V-783ZM-265 -783V-784C-266.657 -784 -268 -782.657 -268 -781H-267H-266C-266 -781.552 -265.552 -782 -265 -782V-783Z" fill="white" fill-opacity="0.1"/>
<g clip-path="url(#clip0_518_82099)">
<rect width="400" height="191" fill="#1A1A1E"/>
<rect x="-1" y="-3" width="401" height="194" fill="#1A1A1E"/>
<path d="M1.68863e-08 179.89V11.7405C-8.22692e-05 10.1885 0.300568 8.65181 0.884557 7.21943C1.46855 5.78705 2.32427 4.48739 3.40225 3.39563C4.48023 2.30386 5.75906 1.44167 7.16475 0.858933C8.57044 0.276192 10.0751 -0.0155302 11.5917 0.000637005H390.413C391.929 -0.0155302 393.434 0.276192 394.839 0.858933C396.245 1.44167 397.524 2.30386 398.602 3.39563C399.68 4.48739 400.536 5.78705 401.12 7.21943C401.704 8.65181 402.004 10.1885 402.004 11.7405V179.89C402.004 181.442 401.704 182.979 401.12 184.411C400.536 185.843 399.68 187.143 398.602 188.235C397.524 189.326 396.245 190.189 394.839 190.771C393.434 191.354 391.929 191.646 390.413 191.63H11.5917C10.0751 191.646 8.57044 191.354 7.16475 190.771C5.75906 190.189 4.48023 189.326 3.40225 188.235C2.32427 187.143 1.46855 185.843 0.884557 184.411C0.300568 182.979 -8.22692e-05 181.442 1.68863e-08 179.89Z" fill="#1A1A1E"/>
<g clip-path="url(#clip1_518_82099)">
<path d="M6 164.549C6 162.194 7.90872 160.285 10.2632 160.285H391.737C394.091 160.285 396 162.194 396 164.549V182.629C396 184.983 394.091 186.892 391.737 186.892H10.2632C7.90872 186.892 6 184.983 6 182.629V164.549Z" fill="#202024"/>
<g clip-path="url(#clip2_518_82099)">
<circle cx="20.9213" cy="173.589" r="4.44087" fill="black" fill-opacity="0.01"/>
<path fill-rule="evenodd" clip-rule="evenodd" d="M20.9211 178.474C23.619 178.474 25.806 176.287 25.806 173.589C25.806 170.891 23.619 168.704 20.9211 168.704C18.2232 168.704 16.0361 170.891 16.0361 173.589C16.0361 176.287 18.2232 178.474 20.9211 178.474ZM20.9211 170.924C21.1663 170.924 21.3652 171.123 21.3652 171.368V173.145H23.1415C23.3868 173.145 23.5856 173.343 23.5856 173.589C23.5856 173.834 23.3868 174.033 23.1415 174.033H21.3652V175.809C21.3652 176.054 21.1663 176.253 20.9211 176.253C20.6758 176.253 20.477 176.054 20.477 175.809V174.033H18.7007C18.4554 174.033 18.2566 173.834 18.2566 173.589C18.2566 173.343 18.4554 173.145 18.7007 173.145H20.477V171.368C20.477 171.123 20.6758 170.924 20.9211 170.924Z" fill="#AEAEB4"/>
</g>
<text opacity="0.5" fill="#EFEFF0" xml:space="preserve" style="white-space: pre" font-family="gg sans" font-size="8.52647" font-weight="500" letter-spacing="0em"><tspan x="42.2373" y="176.581">Message #mess-hall</tspan></text>
<g clip-path="url(#clip3_518_82099)">
<path fill-rule="evenodd" clip-rule="evenodd" d="M264.55 170.924C264.55 169.943 265.346 169.148 266.327 169.148H266.366C267.168 169.148 267.872 169.674 268.103 170.435C268.334 169.674 269.038 169.148 269.84 169.148H269.879C270.86 169.148 271.656 169.943 271.656 170.924C271.656 171.248 271.569 171.551 271.418 171.812H271.656C272.146 171.812 272.544 172.21 272.544 172.7V173.367C272.544 173.489 272.444 173.589 272.322 173.589H263.884C263.762 173.589 263.662 173.489 263.662 173.367V172.7C263.662 172.21 264.06 171.812 264.55 171.812H264.788C264.637 171.551 264.55 171.248 264.55 170.924ZM269.879 171.812C270.37 171.812 270.768 171.415 270.768 170.924C270.768 170.434 270.37 170.036 269.879 170.036H269.84C269.414 170.036 269.043 170.326 268.94 170.738L268.672 171.812H269.879ZM267.266 170.738L267.534 171.812H266.327C265.836 171.812 265.438 171.415 265.438 170.924C265.438 170.434 265.836 170.036 266.327 170.036H266.366C266.792 170.036 267.163 170.326 267.266 170.738Z" fill="#94949C"/>
<path d="M264.106 177.141C264.106 177.632 264.504 178.03 264.994 178.03H267.437C267.559 178.03 267.659 177.93 267.659 177.807V174.699C267.659 174.576 267.559 174.477 267.437 174.477H264.328C264.206 174.477 264.106 174.576 264.106 174.699V177.141Z" fill="#94949C"/>
<path d="M268.769 178.03C268.646 178.03 268.547 177.93 268.547 177.807V174.699C268.547 174.576 268.646 174.477 268.769 174.477H271.878C272 174.477 272.1 174.576 272.1 174.699V177.141C272.1 177.632 271.702 178.03 271.212 178.03H268.769Z" fill="#94949C"/>
</g>
<g clip-path="url(#clip4_518_82099)">
<path fill-rule="evenodd" clip-rule="evenodd" d="M286.311 169.148C285.575 169.148 284.979 169.744 284.979 170.48V176.697C284.979 177.433 285.575 178.03 286.311 178.03H292.528C293.264 178.03 293.86 177.433 293.86 176.697V170.48C293.86 169.744 293.264 169.148 292.528 169.148H286.311ZM287.279 175.307C287.001 175.307 286.756 175.235 286.542 175.092C286.328 174.948 286.162 174.747 286.044 174.489C285.926 174.227 285.867 173.927 285.867 173.589C285.867 173.253 285.929 172.957 286.053 172.698C286.181 172.44 286.365 172.237 286.604 172.09C286.847 171.943 287.135 171.87 287.47 171.87C287.755 171.87 288.008 171.93 288.232 172.052C288.458 172.173 288.629 172.344 288.744 172.564L288.203 172.952C288.04 172.652 287.798 172.502 287.475 172.502C287.182 172.502 286.957 172.598 286.8 172.789C286.644 172.977 286.566 173.244 286.566 173.589C286.566 173.936 286.644 174.204 286.8 174.393C286.957 174.581 287.182 174.675 287.475 174.675C287.606 174.675 287.726 174.651 287.834 174.603C287.946 174.552 288.032 174.484 288.093 174.398V173.986H287.332V173.364H288.773V175.24H288.208L288.117 174.924C287.928 175.18 287.649 175.307 287.279 175.307ZM290.094 175.24H289.395V171.937H290.094V175.24ZM290.765 175.24H291.464V173.986H292.69V173.354H291.464V172.569H292.972V171.937H290.765V175.24Z" fill="#94949C"/>
</g>
<g clip-path="url(#clip5_518_82099)">
<path fill-rule="evenodd" clip-rule="evenodd" d="M308.07 169.148H313.399C314.38 169.148 315.176 169.943 315.176 170.924V174.255C315.176 174.377 315.076 174.477 314.954 174.477H313.843C312.617 174.477 311.623 175.471 311.623 176.697V177.807C311.623 177.93 311.524 178.03 311.401 178.03H308.07C307.089 178.03 306.294 177.234 306.294 176.253V170.924C306.294 169.943 307.089 169.148 308.07 169.148ZM308.292 172.7C308.66 172.7 308.958 172.402 308.958 172.034C308.958 171.666 308.66 171.368 308.292 171.368C307.924 171.368 307.626 171.666 307.626 172.034C307.626 172.402 307.924 172.7 308.292 172.7ZM313.843 172.034C313.843 172.402 313.545 172.7 313.177 172.7C312.809 172.7 312.511 172.402 312.511 172.034C312.511 171.666 312.809 171.368 313.177 171.368C313.545 171.368 313.843 171.666 313.843 172.034ZM309.442 173.342C309.306 173.138 309.03 173.083 308.826 173.22C308.622 173.356 308.567 173.632 308.704 173.836C309.141 174.489 309.888 174.921 310.735 174.921C311.582 174.921 312.328 174.489 312.766 173.836C312.902 173.632 312.847 173.356 312.644 173.22C312.44 173.083 312.164 173.138 312.028 173.342C311.748 173.759 311.273 174.033 310.735 174.033C310.196 174.033 309.722 173.759 309.442 173.342Z" fill="#94949C"/>
<path d="M315.024 175.365C315.039 175.365 315.049 175.38 315.043 175.394C314.978 175.526 314.892 175.649 314.785 175.755L312.901 177.639C312.795 177.746 312.673 177.832 312.54 177.896C312.526 177.903 312.511 177.893 312.511 177.878V176.697C312.511 175.961 313.108 175.365 313.843 175.365H315.024Z" fill="#94949C"/>
</g>
<path fill-rule="evenodd" clip-rule="evenodd" d="M332.051 178.474C334.749 178.474 336.936 176.287 336.936 173.589C336.936 170.891 334.749 168.704 332.051 168.704C329.353 168.704 327.166 170.891 327.166 173.589C327.166 176.287 329.353 178.474 332.051 178.474ZM334.493 174.033C334.861 174.033 335.16 173.734 335.16 173.367C335.16 172.999 334.861 172.7 334.493 172.7C334.126 172.7 333.827 172.999 333.827 173.367C333.827 173.734 334.126 174.033 334.493 174.033ZM333.543 174.915C333.612 174.68 333.406 174.477 333.161 174.477H330.941C330.695 174.477 330.49 174.68 330.559 174.915C330.748 175.56 331.345 176.031 332.051 176.031C332.757 176.031 333.353 175.56 333.543 174.915ZM329.585 172.303C329.366 172.194 329.099 172.282 328.989 172.502C328.88 172.721 328.968 172.988 329.188 173.098L329.726 173.367L329.188 173.636C328.968 173.745 328.88 174.012 328.989 174.231C329.099 174.451 329.366 174.54 329.585 174.43L330.917 173.764C331.068 173.689 331.163 173.535 331.163 173.367C331.163 173.198 331.068 173.045 330.917 172.969L329.585 172.303Z" fill="#94949C"/>
<g clip-path="url(#clip6_518_82099)">
<path d="M348.954 171.64C348.841 172.061 349.091 172.494 349.512 172.607L351.419 173.117C351.84 173.23 352.273 172.98 352.386 172.559L352.896 170.653C353.009 170.231 352.759 169.799 352.338 169.686L350.432 169.175C350.01 169.062 349.578 169.312 349.465 169.733L348.954 171.64Z" fill="#94949C"/>
<path d="M353.802 171.753C353.479 172.344 353.907 173.066 354.581 173.066H356.918C357.592 173.066 358.021 172.344 357.698 171.753L356.529 169.611C356.193 168.993 355.307 168.993 354.97 169.611L353.802 171.753Z" fill="#94949C"/>
<path d="M350.642 174.152C350.799 173.993 351.052 173.993 351.208 174.152L351.544 174.493C351.608 174.558 351.691 174.599 351.781 174.61L352.252 174.665C352.471 174.691 352.629 174.892 352.605 175.116L352.552 175.597C352.542 175.689 352.563 175.781 352.611 175.859L352.862 176.269C352.98 176.46 352.923 176.712 352.737 176.832L352.336 177.09C352.259 177.139 352.201 177.213 352.171 177.3L352.014 177.756C351.941 177.969 351.713 178.081 351.504 178.007L351.057 177.848C350.972 177.817 350.879 177.817 350.793 177.848L350.346 178.007C350.137 178.081 349.909 177.969 349.836 177.756L349.679 177.3C349.649 177.213 349.591 177.139 349.515 177.09L349.114 176.832C348.927 176.712 348.871 176.46 348.988 176.269L349.239 175.859C349.287 175.781 349.308 175.689 349.298 175.597L349.246 175.116C349.221 174.892 349.379 174.691 349.598 174.665L350.069 174.61C350.159 174.599 350.243 174.558 350.307 174.493L350.642 174.152Z" fill="#94949C"/>
<path d="M356.265 174.35C356.109 173.927 355.511 173.927 355.355 174.35L355.151 174.9C355.07 175.119 354.898 175.291 354.679 175.372L354.129 175.576C353.706 175.732 353.706 176.33 354.129 176.486L354.679 176.69C354.898 176.771 355.07 176.943 355.151 177.162L355.355 177.713C355.511 178.135 356.109 178.135 356.265 177.713L356.469 177.162C356.55 176.943 356.722 176.771 356.941 176.69L357.492 176.486C357.914 176.33 357.914 175.732 357.492 175.576L356.941 175.372C356.722 175.291 356.55 175.119 356.469 174.9L356.265 174.35Z" fill="#94949C"/>
</g>
<line x1="366.424" y1="167.727" x2="366.424" y2="179.451" stroke="#97979F" stroke-opacity="0.0392157" stroke-width="0.532904"/>
<g opacity="0.5" clip-path="url(#clip7_518_82099)">
<path d="M376.549 172.709L379.839 173.326C379.965 173.349 380.057 173.46 380.057 173.589C380.057 173.717 379.965 173.828 379.839 173.852L376.549 174.468L375.244 177.077C374.962 177.641 375.56 178.239 376.125 177.957L383.691 174.176C384.175 173.934 384.175 173.244 383.691 173.002L376.125 169.22C375.56 168.938 374.962 169.536 375.244 170.1L376.549 172.709Z" fill="#94949C"/>
</g>
</g>
<g opacity="0.49">
<path opacity="0.49" d="M181.399 27.7608H143.756C142.898 27.7608 142.202 28.4726 142.202 29.3506V37.3484C142.202 38.2264 142.898 38.9381 143.756 38.9381H181.399C182.257 38.9381 182.952 38.2264 182.952 37.3484V29.3506C182.952 28.4726 182.257 27.7608 181.399 27.7608Z" fill="#808AFF"/>
</g>
<path d="M61.9014 36.0761V29.2278H62.8574V35.2201H65.2474V36.0761H61.9014Z" fill="#72767D"/>
<path d="M67.9964 36.1989C67.6926 36.2008 67.3919 36.1369 67.114 36.0113C66.8362 35.8857 66.5874 35.7013 66.3842 35.4703C66.181 35.2392 66.0279 34.9667 65.935 34.6707C65.8422 34.3748 65.8116 34.062 65.8454 33.7531C65.8124 33.4381 65.8428 33.1196 65.9346 32.817C66.0264 32.5145 66.1776 32.2343 66.3791 31.9938C66.5806 31.7533 66.8279 31.5575 67.1061 31.4184C67.3842 31.2793 67.6872 31.1999 67.9964 31.185C69.3109 31.185 70.1474 32.1633 70.1474 33.7531C70.1812 34.062 70.1506 34.3748 70.0577 34.6707C69.9649 34.9667 69.8118 35.2392 69.6086 35.4703C69.4053 35.7013 69.1566 35.8857 68.8787 36.0113C68.6009 36.1369 68.3002 36.2008 67.9964 36.1989ZM67.9964 31.9187C67.1599 31.9187 66.8014 32.7748 66.8014 33.7531C66.8014 34.7314 67.1599 35.4652 67.9964 35.4652C68.8329 35.4652 69.3109 34.7314 69.3109 33.7531C69.3109 32.7748 68.8329 31.9187 67.9964 31.9187Z" fill="#72767D"/>
<path d="M73.138 36.1989C72.8342 36.2008 72.5335 36.1369 72.2556 36.0113C71.9778 35.8857 71.729 35.7013 71.5258 35.4703C71.3226 35.2392 71.1695 34.9667 71.0766 34.6707C70.9838 34.3748 70.9532 34.062 70.987 33.7531C70.954 33.4381 70.9844 33.1196 71.0762 32.817C71.168 32.5145 71.3192 32.2343 71.5207 31.9938C71.7222 31.7533 71.9696 31.5575 72.2477 31.4184C72.5258 31.2793 72.8288 31.1999 73.138 31.185C74.4525 31.185 75.289 32.1633 75.289 33.7531C75.3228 34.062 75.2922 34.3748 75.1993 34.6707C75.1065 34.9667 74.9534 35.2392 74.7502 35.4703C74.547 35.7013 74.2982 35.8857 74.0203 36.0113C73.7425 36.1369 73.4418 36.2008 73.138 36.1989ZM73.138 31.9187C72.3015 31.9187 71.943 32.7748 71.943 33.7531C71.943 34.7314 72.421 35.4652 73.138 35.4652C73.855 35.4652 74.4525 34.7314 74.4525 33.7531C74.4525 32.7748 73.9745 31.9187 73.138 31.9187Z" fill="#72767D"/>
<path d="M79.3495 36.199L77.318 33.6309V36.0767H76.4814V28.9838H77.318V33.3863L79.1105 31.4296H80.186L78.1545 33.3863L80.3055 35.9544L79.3495 36.199Z" fill="#72767D"/>
<path d="M86.1632 36.0766V35.4652C85.7219 35.926 85.1206 36.1897 84.4902 36.1989C84.3129 36.2182 84.1337 36.1966 83.9657 36.1358C83.7976 36.075 83.645 35.9765 83.519 35.8476C83.3929 35.7186 83.2967 35.5624 83.2373 35.3904C83.1779 35.2185 83.1568 35.0351 83.1756 34.8537C83.1756 33.6308 84.1317 33.2639 86.0437 33.0194V32.7748C86.0437 32.1633 85.6852 32.041 85.2072 32.041C84.6307 32.044 84.0611 32.1689 83.5341 32.4079V31.6742C84.0911 31.3832 84.7021 31.2165 85.3267 31.185C86.5217 31.185 86.9997 31.6742 86.9997 32.7748V36.0766H86.1632ZM85.9242 33.6308C84.2511 33.8754 83.8926 34.3645 83.8926 34.8537C83.8926 35.3429 84.1316 35.4652 84.6096 35.4652C84.8694 35.4558 85.1234 35.3845 85.3516 35.2572C85.5798 35.1298 85.7758 34.9498 85.9242 34.7314V33.6308Z" fill="#72767D"/>
<path d="M89.7444 36.1983C89.5672 36.2176 89.388 36.196 89.2199 36.1352C89.0519 36.0744 88.8993 35.9759 88.7732 35.847C88.6472 35.718 88.551 35.5618 88.4916 35.3898C88.4322 35.2179 88.4111 35.0345 88.4299 34.8531V32.0404H87.7129V31.3067H88.4299V29.7169H89.2664V31.3067H90.2224V32.0404H89.1469V34.7308C89.1469 35.0977 89.2664 35.3423 89.7444 35.3423H90.1029V36.076L89.7444 36.1983Z" fill="#72767D"/>
<path d="M95.1223 36.1983C94.9451 36.2176 94.7659 36.196 94.5979 36.1352C94.4298 36.0744 94.2772 35.9759 94.1512 35.847C94.0251 35.718 93.9289 35.5618 93.8695 35.3898C93.8101 35.2179 93.789 35.0345 93.8078 34.8531V32.0404H93.0908V31.3067H93.8078V29.7169H94.6443V31.3067H95.7199V32.0404H94.5248V34.7308C94.5248 35.0977 94.6443 35.3423 95.2419 35.3423H95.6004V36.076L95.1223 36.1983Z" fill="#72767D"/>
<path d="M99.7811 36.0767V32.8971C99.7811 32.408 99.5421 32.0411 99.0641 32.0411C98.8044 32.0505 98.5504 32.1217 98.3222 32.2491C98.094 32.3764 97.898 32.5564 97.7496 32.7748V36.0767H96.9131V28.9838H97.7496V32.0411C98.1612 31.6087 98.7145 31.3474 99.3031 31.3073C100.259 31.3073 100.618 31.9188 100.618 32.7748V36.199L99.7811 36.0767Z" fill="#72767D"/>
<path d="M103.968 36.1989C102.654 36.1989 101.817 35.4652 101.817 33.7531C101.817 32.041 102.654 31.185 103.849 31.185C105.044 31.185 105.761 32.2856 105.761 33.6308H102.654C102.654 34.7314 103.132 35.3429 103.968 35.3429C104.283 35.3532 104.595 35.2928 104.885 35.166C105.174 35.0392 105.432 34.8491 105.641 34.6091V35.4652C105.172 35.8819 104.587 36.1384 103.968 36.1989ZM102.654 33.1416H104.924C104.805 32.4079 104.446 31.9187 103.849 31.9187C103.251 31.9187 102.773 32.2856 102.654 33.1416Z" fill="#72767D"/>
<path d="M108.271 36.1988C107.681 36.184 107.106 36.0156 106.598 35.7096V34.8536C107.078 35.2335 107.664 35.4476 108.271 35.465C108.868 35.465 109.227 35.2205 109.227 34.8536C109.227 34.4867 108.988 34.2421 108.151 33.9976C107.315 33.753 106.598 33.3861 106.598 32.5301C106.613 32.3371 106.665 32.1491 106.751 31.9769C106.838 31.8047 106.956 31.6516 107.101 31.5266C107.245 31.4016 107.412 31.307 107.593 31.2484C107.773 31.1897 107.963 31.1681 108.151 31.1849C108.692 31.1609 109.229 31.2877 109.705 31.5517V32.4078C109.276 32.1216 108.782 31.9532 108.271 31.9186C107.793 31.9186 107.554 32.1632 107.554 32.5301C107.554 32.8969 107.793 33.0192 108.51 33.2638C109.227 33.5084 110.183 33.8753 110.183 34.7313C110.183 35.5873 109.466 36.1988 108.271 36.1988Z" fill="#72767D"/>
<path d="M113.051 36.1989C112.742 36.2227 112.431 36.1736 112.142 36.0554C111.854 35.9371 111.596 35.7527 111.389 35.5166C111.181 35.2804 111.029 34.9986 110.944 34.6929C110.86 34.3872 110.844 34.0657 110.9 33.7531C110.867 33.4381 110.898 33.1196 110.989 32.817C111.081 32.5145 111.232 32.2343 111.434 31.9938C111.635 31.7533 111.883 31.5575 112.161 31.4184C112.439 31.2793 112.742 31.1999 113.051 31.185C114.366 31.185 114.963 32.2856 114.963 33.6308H111.856C111.856 34.7314 112.334 35.3429 113.171 35.3429C113.485 35.3532 113.798 35.2928 114.087 35.166C114.376 35.0392 114.634 34.8491 114.844 34.6091V35.4652C114.342 35.906 113.712 36.1641 113.051 36.1989ZM111.856 33.1416H114.127C114.007 32.4079 113.649 31.9187 112.932 31.9187C112.215 31.9187 111.976 32.2856 111.856 33.1416Z" fill="#72767D"/>
<path d="M119.857 37.9107C118.662 37.9107 117.706 37.5438 117.706 36.6878C117.706 35.8318 118.065 35.8318 118.662 35.4649L118.423 34.9757C118.43 34.8206 118.478 34.6703 118.563 34.541C118.647 34.4118 118.764 34.3084 118.901 34.242C118.64 34.1383 118.418 33.9519 118.267 33.7099C118.117 33.4679 118.046 33.183 118.065 32.8968C118.064 32.6613 118.111 32.4282 118.202 32.2121C118.294 31.996 118.428 31.8015 118.596 31.6408C118.764 31.4801 118.963 31.3567 119.18 31.2782C119.397 31.1997 119.628 31.1679 119.857 31.1847C120.29 31.2387 120.702 31.4073 121.052 31.6739L122.128 31.307L122.367 32.0408H121.411C121.544 32.2635 121.626 32.5145 121.65 32.7745C121.634 32.9995 121.576 33.2193 121.478 33.4211C121.379 33.623 121.243 33.8029 121.076 33.9507C120.91 34.0984 120.716 34.211 120.507 34.282C120.298 34.353 120.077 34.3809 119.857 34.3643H119.499L119.26 34.6089C119.26 34.8534 119.379 34.8534 120.216 34.9757H120.574C121.53 35.098 122.128 35.4649 122.128 36.1986C122.128 36.9324 121.052 37.9107 119.857 37.9107ZM119.26 35.7095C119.082 35.7828 118.924 35.8989 118.799 36.0479C118.674 36.1969 118.586 36.3744 118.543 36.5655C118.543 36.9324 119.021 37.2993 119.977 37.2993C120.933 37.2993 121.291 36.9324 121.291 36.5655C121.291 36.1986 121.172 36.0764 120.455 35.9541H119.26V35.7095ZM119.857 31.9185C119.604 31.9185 119.36 32.0215 119.181 32.205C119.002 32.3885 118.901 32.6373 118.901 32.8968C118.901 33.1563 119.002 33.4051 119.181 33.5886C119.36 33.772 119.604 33.8751 119.857 33.8751C120.111 33.8751 120.354 33.772 120.533 33.5886C120.712 33.4051 120.813 33.1563 120.813 32.8968C120.813 32.6373 120.712 32.3885 120.533 32.205C120.354 32.0215 120.111 31.9185 119.857 31.9185Z" fill="#72767D"/>
<path d="M125.957 36.0766V35.4652C125.516 35.926 124.915 36.1897 124.284 36.1989C124.107 36.2182 123.928 36.1966 123.76 36.1358C123.592 36.075 123.439 35.9765 123.313 35.8476C123.187 35.7186 123.091 35.5624 123.031 35.3904C122.972 35.2185 122.951 35.0351 122.97 34.8537C122.97 33.6308 123.926 33.2639 125.838 33.0194V32.7748C125.838 32.1633 125.479 32.041 125.001 32.041C124.425 32.044 123.855 32.1689 123.328 32.4079V31.6742C123.885 31.3832 124.496 31.2165 125.121 31.185C126.316 31.185 126.913 31.6742 126.913 32.7748V36.0766H125.957ZM125.718 33.6308C124.045 33.8754 123.687 34.3645 123.687 34.8537C123.687 35.3429 123.926 35.4652 124.404 35.4652C124.663 35.4558 124.917 35.3845 125.146 35.2572C125.374 35.1298 125.57 34.9498 125.718 34.7314V33.6308Z" fill="#72767D"/>
<path d="M128.463 30.3285C128.224 30.3285 127.865 30.0839 127.865 29.8393C127.865 29.6771 127.928 29.5216 128.04 29.4069C128.152 29.2923 128.304 29.2278 128.463 29.2278C128.621 29.2278 128.773 29.2923 128.885 29.4069C128.997 29.5216 129.06 29.6771 129.06 29.8393C129.032 29.9795 128.957 30.1052 128.848 30.1946C128.739 30.284 128.603 30.3313 128.463 30.3285ZM127.985 36.0761V31.3068H128.941V36.0761H127.985Z" fill="#72767D"/>
<path d="M133.246 36.0766V32.8971C133.246 32.4079 133.007 32.041 132.529 32.041C132.269 32.0504 132.015 32.1217 131.787 32.249C131.559 32.3764 131.363 32.5564 131.214 32.7748V36.0766H130.378V31.3073H130.975V32.041C131.404 31.5457 132.004 31.2391 132.648 31.185C132.832 31.1842 133.013 31.2226 133.181 31.2978C133.349 31.3729 133.499 31.483 133.623 31.6212C133.747 31.7594 133.841 31.9225 133.899 32.1001C133.958 32.2777 133.98 32.4658 133.963 32.6525V36.0766H133.246Z" fill="#72767D"/>
<path d="M136.951 36.1983C136.324 36.1834 135.709 36.0157 135.158 35.7091V34.8531C135.639 35.233 136.224 35.4471 136.831 35.4645C137.429 35.4645 137.787 35.22 137.787 34.8531C137.787 34.4862 137.548 34.2416 136.712 33.9971C135.875 33.7525 135.158 33.3856 135.158 32.5296C135.158 31.6735 135.756 31.1844 136.831 31.1844C137.332 31.1764 137.827 31.3028 138.265 31.5512V32.4073C137.881 32.12 137.425 31.9504 136.951 31.9181C136.353 31.9181 136.114 32.1627 136.114 32.5296C136.114 32.8964 136.353 33.0187 137.07 33.2633C137.787 33.5079 138.743 33.8748 138.743 34.7308C138.743 35.5868 138.146 36.1983 136.951 36.1983Z" fill="#72767D"/>
<path d="M147.944 34.7312C147.466 35.3427 147.107 35.7096 146.629 35.7096C146.151 35.7096 145.554 35.2204 145.554 34.3644C145.521 34.0268 145.553 33.686 145.65 33.3615C145.746 33.037 145.905 32.7352 146.116 32.4737C146.327 32.2122 146.587 31.9961 146.88 31.8378C147.173 31.6796 147.494 31.5823 147.824 31.5517L149.378 31.7963L148.9 33.9975V34.4867C148.9 34.6488 148.963 34.8043 149.075 34.919C149.187 35.0337 149.339 35.0981 149.497 35.0981C150.214 35.0981 150.692 34.3644 150.692 33.0192C150.729 32.6243 150.68 32.226 150.549 31.8527C150.418 31.4794 150.208 31.1404 149.934 30.8599C149.66 30.5794 149.329 30.3644 148.964 30.2303C148.599 30.0962 148.21 30.0463 147.824 30.0842C147.322 30.1153 146.83 30.2477 146.378 30.4737C145.925 30.6997 145.521 31.0149 145.188 31.4012C144.855 31.7875 144.599 32.2373 144.437 32.7248C144.274 33.2124 144.207 33.728 144.239 34.2421C144.202 34.6369 144.251 35.0352 144.382 35.4085C144.513 35.7818 144.723 36.1209 144.997 36.4013C145.271 36.6818 145.602 36.8968 145.967 37.0309C146.332 37.165 146.721 37.2149 147.107 37.177C147.848 37.1578 148.579 36.9917 149.258 36.6879V37.0548C148.583 37.3714 147.85 37.5382 147.107 37.5439C146.674 37.581 146.239 37.5211 145.831 37.3683C145.423 37.2155 145.052 36.9735 144.745 36.6591C144.438 36.3448 144.201 35.9657 144.052 35.5483C143.903 35.1308 143.844 34.6851 143.881 34.2421C143.848 33.0947 144.254 31.9795 145.013 31.1343C145.772 30.289 146.824 29.7806 147.944 29.7173C148.372 29.677 148.804 29.7357 149.207 29.8892C149.61 30.0427 149.974 30.287 150.273 30.6041C150.571 30.9212 150.796 31.3029 150.93 31.7209C151.065 32.139 151.106 32.5827 151.051 33.0192C151.051 34.6089 150.334 35.7096 149.258 35.7096C148.964 35.7209 148.674 35.6307 148.435 35.4532C148.197 35.2758 148.024 35.0215 147.944 34.7312ZM147.944 33.9975L148.302 32.4077H147.705C147.107 32.4077 146.51 33.2638 146.51 34.3644C146.51 35.465 146.629 34.9758 146.988 34.9758C147.346 34.9758 147.466 34.6089 147.944 33.9975Z" fill="white"/>
<path d="M155.352 36.1992C154.897 36.2072 154.445 36.1234 154.021 35.9526C153.598 35.7818 153.211 35.5273 152.884 35.2037C152.223 34.5501 151.843 33.6545 151.827 32.7139C151.811 31.7733 152.161 30.8648 152.799 30.1883C153.438 29.5117 154.313 29.1225 155.232 29.1063C155.975 29.1121 156.708 29.2788 157.384 29.5955L157.145 30.8184C156.627 30.4215 155.998 30.2069 155.352 30.2069C153.918 30.2069 153.32 31.1853 153.32 32.6527C153.32 34.1202 154.037 35.0986 155.352 35.0986L156.428 34.854V33.2642H155.113V32.2859H157.742V35.4654C157.052 35.9855 156.208 36.2448 155.352 36.1992Z" fill="white"/>
<path d="M160.011 33.2639V36.0766H158.816V31.3073H159.892V32.2856C160.012 31.9633 160.225 31.6858 160.502 31.4894C160.78 31.293 161.108 31.1869 161.445 31.185V32.4079C161.161 32.4392 160.886 32.5317 160.639 32.6792C160.392 32.8267 160.178 33.026 160.011 33.2639Z" fill="white"/>
<path d="M165.033 36.0764V35.4649C164.837 35.6895 164.598 35.8704 164.331 35.9967C164.063 36.1229 163.774 36.1916 163.479 36.1987C163.302 36.2179 163.123 36.1964 162.955 36.1356C162.787 36.0748 162.634 35.9763 162.508 35.8473C162.382 35.7183 162.286 35.5622 162.227 35.3902C162.167 35.2182 162.146 35.0348 162.165 34.8535C162.165 33.6306 163.121 33.1414 164.913 33.0191C164.913 32.4077 164.674 32.2854 164.196 32.2854C163.657 32.2778 163.124 32.4036 162.643 32.6522L162.404 31.6739C163.011 31.4221 163.661 31.2973 164.316 31.307C165.511 31.307 166.108 31.7962 166.108 32.8968V36.1987L165.033 36.0764ZM164.794 33.6306C163.479 33.8751 163.121 34.242 163.121 34.7312C163.121 35.2203 163.36 35.2203 163.718 35.2203C163.924 35.2407 164.131 35.2064 164.319 35.1206C164.508 35.0349 164.671 34.9008 164.794 34.7312V33.6306Z" fill="white"/>
<path d="M168.979 37.9106C167.664 37.9106 166.708 37.5437 166.708 36.6877C166.708 35.8316 166.947 35.9539 167.544 35.5871C167.421 35.4506 167.338 35.2809 167.306 35.0979C167.306 34.731 167.545 34.4865 167.903 34.2419C167.629 34.143 167.391 33.9615 167.221 33.7213C167.05 33.4811 166.955 33.1936 166.947 32.8967C166.962 32.6556 167.024 32.42 167.128 32.2033C167.233 31.9866 167.378 31.7932 167.555 31.6341C167.733 31.4751 167.94 31.3535 168.163 31.2763C168.387 31.1992 168.624 31.168 168.859 31.1846C169.118 31.1621 169.379 31.1939 169.625 31.278C169.872 31.3621 170.099 31.4968 170.293 31.6738L171.369 31.1846V32.1629H170.532C170.628 32.3944 170.669 32.6459 170.652 32.8967C170.636 33.1217 170.578 33.3415 170.48 33.5433C170.381 33.7452 170.245 33.9251 170.078 34.0728C169.912 34.2206 169.718 34.3332 169.509 34.4041C169.3 34.4751 169.079 34.5031 168.859 34.4865H168.381V34.731C168.381 34.8533 168.501 34.9756 169.218 35.0979H169.815C170.771 35.2202 171.369 35.5871 171.369 36.3208C171.369 37.0545 170.293 37.9106 168.979 37.9106ZM168.142 35.8316C167.903 36.0762 167.664 36.3208 167.664 36.5654C167.664 36.81 168.142 37.1768 168.979 37.1768C169.815 37.1768 170.293 36.9323 170.293 36.5654C170.293 36.1985 170.174 36.1985 169.576 36.0762H168.142V35.8316ZM168.859 31.9184C168.381 31.9184 168.142 32.2852 168.142 32.8967C168.142 33.5081 168.381 33.7527 168.859 33.7527C168.974 33.7746 169.092 33.7676 169.203 33.7324C169.314 33.6971 169.415 33.6346 169.498 33.5503C169.58 33.466 169.641 33.3624 169.676 33.2485C169.71 33.1346 169.717 33.0139 169.696 32.8967C169.696 32.2852 169.457 31.9184 168.859 31.9184Z" fill="white"/>
<path d="M173.996 37.911C172.682 37.911 171.726 37.5442 171.726 36.6881C171.726 35.8321 172.084 35.9544 172.682 35.5875C172.585 35.5453 172.501 35.4779 172.438 35.3921C172.375 35.3062 172.336 35.2049 172.323 35.0983C172.323 34.7315 172.562 34.4869 172.921 34.2423C172.669 34.1245 172.457 33.9348 172.308 33.6961C172.16 33.4575 172.082 33.18 172.084 32.8971C172.082 32.6501 172.131 32.4055 172.23 32.1801C172.329 31.9547 172.474 31.7537 172.655 31.5911C172.837 31.4284 173.051 31.3079 173.282 31.2379C173.514 31.1678 173.757 31.1498 173.996 31.1851C174.236 31.1723 174.476 31.209 174.702 31.293C174.928 31.377 175.135 31.5067 175.311 31.6742L176.506 31.1851V32.1634H175.669C175.669 32.408 175.789 32.6525 175.789 32.8971C175.729 33.362 175.497 33.7857 175.142 34.0814C174.786 34.3771 174.334 34.5222 173.877 34.4869H173.518L173.279 34.7315C173.279 34.8538 173.399 34.9761 174.116 35.0983H174.833C175.789 35.2206 176.386 35.5875 176.386 36.3212C176.386 37.055 175.311 37.911 173.996 37.911ZM173.279 35.8321C173.142 35.8985 173.025 36.0019 172.941 36.1311C172.856 36.2604 172.808 36.4107 172.801 36.5658C172.801 36.9327 173.16 37.1773 174.116 37.1773C175.072 37.1773 175.43 36.9327 175.43 36.5658C175.43 36.199 175.191 36.199 174.594 36.0767H173.279V35.8321ZM173.996 31.9188C173.399 31.9188 173.16 32.2857 173.16 32.8971C173.16 33.1242 173.248 33.3419 173.405 33.5024C173.561 33.663 173.774 33.7532 173.996 33.7532C174.218 33.7532 174.431 33.663 174.588 33.5024C174.745 33.3419 174.833 33.1242 174.833 32.8971C174.85 32.7749 174.841 32.6503 174.807 32.5319C174.773 32.4135 174.714 32.304 174.634 32.2111C174.555 32.1181 174.457 32.0439 174.346 31.9934C174.236 31.943 174.117 31.9175 173.996 31.9188Z" fill="white"/>
<path d="M178.894 36.1983C178.265 36.1991 177.647 36.0303 177.102 35.7092V34.7309C177.582 35.1107 178.168 35.3248 178.775 35.3423C179.372 35.3423 179.611 35.0977 179.611 34.7309C179.611 34.364 179.372 34.2417 178.655 34.1194C177.938 33.9971 176.982 33.5079 176.982 32.6519C176.982 31.7959 177.699 31.1844 178.775 31.1844C179.353 31.1758 179.925 31.3013 180.448 31.5513L180.209 32.5296C179.774 32.2568 179.283 32.0894 178.775 32.0405C178.297 32.0405 178.058 32.285 178.058 32.5296C178.058 32.7742 178.297 32.8965 179.014 33.1411C179.731 33.3857 180.687 33.7525 180.687 34.7309C180.687 35.7092 180.089 36.1983 178.894 36.1983Z" fill="white"/>
<path d="M71.5828 20.6675H69.3123L67.6393 14.553L66.0857 20.6675H63.8152L61.3057 11.4957L63.8152 11.0065L65.2492 17.1211L66.6832 11.1288H69.0733L70.5073 17.1211L71.8218 11.1288H74.0924L71.5828 20.6675Z" fill="#808AFF"/>
<path d="M78.514 20.6676V19.6893C78.2678 20.0062 77.9603 20.2676 77.6107 20.457C77.2611 20.6464 76.8769 20.7597 76.4825 20.7899C76.2157 20.8107 75.9478 20.7701 75.6983 20.6712C75.4489 20.5722 75.2243 20.4174 75.0409 20.2181C74.8576 20.0187 74.7201 19.7799 74.6387 19.5191C74.5573 19.2583 74.534 18.9822 74.5704 18.711V13.9417H76.602V18.0995C76.602 18.5887 76.841 18.9556 77.319 18.9556C77.7404 18.8989 78.1249 18.6803 78.3945 18.3441V13.9417H80.426V20.6676H78.514Z" fill="#808AFF"/>
<path d="M89.1474 20.6677V16.3875C89.1474 15.8983 89.0279 15.6537 88.5499 15.6537C88.1539 15.7113 87.7815 15.8807 87.4744 16.1429V20.6677H85.4428V16.3875C85.4428 15.8983 85.3233 15.6537 84.8453 15.6537C84.4494 15.7113 84.0769 15.8807 83.7698 16.1429V20.6677H81.7383V13.9417H83.5308V14.7977C83.7831 14.4975 84.0944 14.2552 84.4445 14.0866C84.7946 13.918 85.1755 13.8269 85.5623 13.8194C85.9081 13.766 86.2614 13.8335 86.565 14.011C86.8686 14.1886 87.1048 14.4658 87.2354 14.7977C87.4876 14.4975 87.799 14.2552 88.1491 14.0866C88.4992 13.918 88.8801 13.8269 89.2669 13.8194C89.5337 13.7986 89.8016 13.8391 90.051 13.9381C90.3004 14.0371 90.5251 14.1919 90.7084 14.3912C90.8918 14.5906 91.0292 14.8294 91.1106 15.0902C91.192 15.351 91.2154 15.6271 91.1789 15.8983V20.6677H89.1474Z" fill="#808AFF"/>
<path d="M95.9632 20.6674L94.6487 20.4228V22.8686L92.6172 23.2355V13.9415H94.4097V14.7975C94.6484 14.512 94.9406 14.2783 95.269 14.1103C95.5974 13.9423 95.9553 13.8433 96.3217 13.8192C97.6363 13.8192 98.7118 14.7975 98.7118 17.121C98.7118 19.4445 97.3972 20.6674 95.9632 20.6674ZM95.7242 15.6535C95.3028 15.7101 94.9183 15.9287 94.6487 16.265V18.8331C94.9388 19.0044 95.27 19.0891 95.6047 19.0776C96.2022 19.0776 96.7998 18.5885 96.7998 17.2433C96.7998 15.8981 96.3217 15.6535 95.7242 15.6535Z" fill="#808AFF"/>
<path d="M103.966 20.6676L103.727 19.6893C103.481 20.0062 103.174 20.2676 102.824 20.457C102.474 20.6464 102.09 20.7597 101.696 20.7899C100.501 20.7899 99.9033 20.0562 99.9033 18.711V13.9417H101.935V18.0995C101.935 18.5887 102.054 18.9556 102.532 18.9556C102.762 18.9431 102.986 18.8824 103.192 18.7772C103.398 18.672 103.58 18.5246 103.727 18.3441V13.9417H105.759V20.6676H103.966Z" fill="#808AFF"/>
<path d="M109.585 20.7896C108.626 20.7654 107.685 20.5143 106.837 20.0558L107.076 18.4661C107.827 18.9656 108.691 19.2603 109.585 19.3221C110.063 19.3221 110.422 19.0775 110.422 18.8329C110.422 18.5884 110.183 18.3438 109.227 18.0992C108.271 17.8546 106.956 17.1209 106.956 15.898C106.956 14.6751 107.793 13.819 109.466 13.819C110.289 13.7927 111.106 13.9601 111.856 14.3082L111.617 15.898C110.95 15.5424 110.217 15.3341 109.466 15.2865C108.988 15.2865 108.749 15.4088 108.749 15.6534C108.749 16.0203 108.988 16.1426 109.824 16.3871C110.661 16.6317 112.214 17.3655 112.214 18.5884C112.214 19.8113 111.258 20.7896 109.585 20.7896Z" fill="#808AFF"/>
<path d="M119.023 14.5527V20.6672H118.067V14.5527H115.916V13.6967H121.055V14.5527H119.023Z" fill="#72767D"/>
<path d="M122.847 20.7901C122.538 20.7752 122.235 20.6958 121.957 20.5567C121.679 20.4176 121.431 20.2218 121.23 19.9812C121.028 19.7407 120.877 19.4606 120.785 19.158C120.693 18.8555 120.663 18.537 120.696 18.222C120.662 17.913 120.693 17.6003 120.786 17.3043C120.878 17.0083 121.032 16.7359 121.235 16.5048C121.438 16.2737 121.687 16.0894 121.965 15.9638C122.243 15.8382 122.543 15.7742 122.847 15.7762C123.151 15.7742 123.451 15.8382 123.729 15.9638C124.007 16.0894 124.256 16.2737 124.459 16.5048C124.662 16.7359 124.815 17.0083 124.908 17.3043C125.001 17.6003 125.032 17.913 124.998 18.222C124.998 19.8117 124.161 20.7901 122.847 20.7901ZM122.847 16.5099C122.01 16.5099 121.652 17.2436 121.652 18.222C121.652 19.2003 122.01 20.0563 122.847 20.0563C123.683 20.0563 124.161 19.3226 124.161 18.222C124.161 17.1214 123.683 16.5099 122.847 16.5099Z" fill="#72767D"/>
<path d="M129.306 20.668V19.9342C129.152 20.1847 128.941 20.3933 128.692 20.5424C128.442 20.6914 128.161 20.7765 127.872 20.7903C126.796 20.7903 125.96 19.9342 125.96 18.3445C125.96 16.7547 126.916 15.7764 128.111 15.7764L129.306 16.0209V13.5751H130.143V20.7903L129.306 20.668ZM129.187 16.877C128.836 16.6294 128.418 16.5011 127.992 16.5101C127.274 16.5101 126.796 17.1216 126.796 18.3445C126.796 19.5674 127.155 19.9342 127.872 19.9342C128.14 19.902 128.397 19.8082 128.625 19.66C128.853 19.5118 129.044 19.3129 129.187 19.0782V16.877Z" fill="#72767D"/>
<path d="M134.203 20.668V20.0565C134.007 20.2811 133.768 20.462 133.501 20.5882C133.234 20.7144 132.944 20.7832 132.65 20.7902C132.467 20.8073 132.284 20.7851 132.11 20.7252C131.937 20.6653 131.777 20.5689 131.642 20.4422C131.507 20.3156 131.399 20.1614 131.326 19.9897C131.253 19.818 131.215 19.6325 131.216 19.445C131.216 18.2221 132.172 17.733 134.203 17.4884C134.203 16.8769 133.845 16.6324 133.247 16.6324C132.698 16.6623 132.165 16.8303 131.694 17.1215V16.2655C132.255 16.0012 132.869 15.8756 133.486 15.8986C134.562 15.8986 135.159 16.3878 135.159 17.4884V20.7902L134.203 20.668ZM134.084 18.2221C132.291 18.3444 131.933 18.8336 131.933 19.3228C131.91 19.4239 131.913 19.5293 131.94 19.6291C131.968 19.7289 132.021 19.8198 132.092 19.8932C132.164 19.9666 132.253 20.0201 132.35 20.0487C132.448 20.0773 132.551 20.0799 132.65 20.0565C133.189 19.9632 133.688 19.7077 134.084 19.3228V18.2221Z" fill="#72767D"/>
<path d="M138.029 21.1564C137.671 22.257 137.193 22.5016 136.476 22.5016H136.117V21.7678H136.595C136.954 21.7678 137.193 21.6456 137.432 21.1564V20.7895L135.759 16.0202H136.595L137.91 19.8112L139.105 16.1425H139.941L138.029 21.1564Z" fill="#72767D"/>
<path d="M145.791 20.6673V20.0558C145.349 20.5167 144.748 20.7804 144.118 20.7896C143.935 20.8066 143.751 20.7845 143.578 20.7245C143.404 20.6646 143.245 20.5682 143.11 20.4416C142.975 20.3149 142.867 20.1608 142.794 19.9891C142.72 19.8173 142.683 19.6318 142.684 19.4444C142.684 18.2215 143.759 17.7323 145.671 17.4877C145.693 17.3705 145.686 17.2498 145.651 17.1359C145.617 17.022 145.556 16.9184 145.473 16.8341C145.391 16.7498 145.29 16.6873 145.178 16.6521C145.067 16.6168 144.949 16.6098 144.835 16.6317C144.248 16.6653 143.677 16.8324 143.162 17.1209V16.2648C143.728 16.0161 144.338 15.8911 144.954 15.898C146.149 15.898 146.627 16.3871 146.627 17.4877V20.7896L145.791 20.6673ZM145.671 18.2215C143.998 18.3438 143.64 18.8329 143.64 19.3221C143.64 19.8113 143.879 20.0558 144.237 20.0558C144.512 20.0395 144.781 19.966 145.028 19.8399C145.274 19.7137 145.493 19.5376 145.671 19.3221V18.2215Z" fill="#72767D"/>
<path d="M149.496 20.6672C148.66 20.6672 148.062 20.4226 148.062 19.4443V16.6316H147.465V15.8979H148.062V14.3081H149.018V16.0202H149.974V16.6316H148.899V19.322C148.899 19.6889 149.018 19.9335 149.496 19.9335H149.855V20.6672H149.496Z" fill="#72767D"/>
<path d="M157.147 19.0776V20.6674H156.311V19.0776H152.965V18.4662L156.072 13.8192H157.147V18.3439H158.103V19.0776H157.147ZM156.311 14.9198L153.921 18.3439H156.311V14.9198Z" fill="#72767D"/>
<path d="M159.056 17.1216V15.8987H160.012V17.1216H159.056ZM159.056 20.668V19.4451H160.012V20.668H159.056Z" fill="#72767D"/>
<path d="M161.087 20.6674V19.9337L163.596 17.3656C163.833 17.1711 164.028 16.9303 164.172 16.6573C164.315 16.3842 164.404 16.0845 164.433 15.7758C164.452 15.6105 164.435 15.4429 164.381 15.2855C164.328 15.1282 164.241 14.9853 164.125 14.8676C164.01 14.7498 163.871 14.6604 163.717 14.6059C163.563 14.5514 163.4 14.5333 163.238 14.5529C162.898 14.5639 162.564 14.6454 162.256 14.7926C161.948 14.9397 161.672 15.1494 161.445 15.409V14.5529C161.696 14.3003 161.996 14.1044 162.325 13.978C162.655 13.8516 163.006 13.7975 163.357 13.8192C164.672 13.8192 165.508 14.5529 165.508 15.6535C165.508 16.7541 165.15 16.9987 164.313 17.8548L162.401 19.8114H165.389V20.6674H161.087Z" fill="#72767D"/>
<path d="M168.974 20.7897C167.421 20.7897 166.465 19.4445 166.465 17.2433C166.465 15.0421 167.421 13.8192 168.974 13.8192C170.528 13.8192 171.484 15.0421 171.484 17.2433C171.484 19.4445 170.408 20.7897 168.974 20.7897ZM168.974 14.5529C167.899 14.5529 167.301 15.5312 167.301 17.2433C167.301 18.9554 167.899 19.9337 168.974 19.9337C170.05 19.9337 170.528 19.0776 170.528 17.2433C170.528 15.4089 169.93 14.5529 168.974 14.5529Z" fill="#72767D"/>
<path d="M174.717 20.6677H173.522V22.5021H172.686V15.8984H173.283V16.5099C173.479 16.2853 173.718 16.1043 173.985 15.9781C174.253 15.8519 174.542 15.7832 174.837 15.7761C175.793 15.7761 176.629 16.5099 176.629 18.0996C176.629 19.6894 175.793 20.6677 174.717 20.6677ZM174.837 16.5099C174.566 16.5327 174.305 16.6226 174.076 16.7717C173.847 16.9209 173.657 17.1248 173.522 17.3659V19.6894L174.598 19.934C175.315 19.934 175.912 19.3225 175.912 18.2219C175.912 17.1213 175.434 16.5099 174.837 16.5099Z" fill="#72767D"/>
<path d="M183.677 20.6679V17.366C183.7 17.2649 183.698 17.1595 183.67 17.0597C183.642 16.9599 183.59 16.869 183.518 16.7956C183.446 16.7222 183.357 16.6687 183.26 16.6401C183.162 16.6115 183.059 16.6088 182.961 16.6323C182.701 16.6417 182.447 16.7129 182.219 16.8403C181.99 16.9676 181.794 17.1476 181.646 17.366V20.6679H180.809V17.366C180.832 17.2649 180.83 17.1595 180.802 17.0597C180.774 16.9599 180.722 16.869 180.65 16.7956C180.578 16.7222 180.489 16.6687 180.392 16.6401C180.294 16.6115 180.191 16.6088 180.092 16.6323C179.833 16.6417 179.579 16.7129 179.35 16.8403C179.122 16.9676 178.926 17.1476 178.778 17.366V20.6679H177.941V15.8985H178.539V16.51C178.993 16.0694 179.587 15.8092 180.212 15.7763C180.464 15.7335 180.722 15.7838 180.941 15.9183C181.16 16.0527 181.325 16.2624 181.407 16.51C181.861 16.0694 182.455 15.8092 183.08 15.7763C183.257 15.757 183.436 15.7786 183.604 15.8393C183.773 15.9001 183.925 15.9986 184.051 16.1276C184.177 16.2566 184.273 16.4128 184.333 16.5847C184.392 16.7567 184.413 16.9401 184.395 17.1214V20.6679H183.677Z" fill="#72767D"/>
<path d="M29.992 43.6583C39.2319 43.6583 46.7223 35.9931 46.7223 26.5377C46.7223 17.0822 39.2319 9.41699 29.992 9.41699C20.7521 9.41699 13.2617 17.0822 13.2617 26.5377C13.2617 35.9931 20.7521 43.6583 29.992 43.6583Z" fill="#EB459F"/>
<path d="M15.2919 23.847C15.6504 22.5018 16.8454 22.5018 17.9209 22.6241C18.0484 21.7394 18.2894 20.8759 18.6379 20.056C19.9525 17.4879 22.5815 16.9987 25.2105 16.7541C27.8396 16.5095 34.1732 16.265 38.2363 17.977C38.9374 18.2869 39.5602 18.7564 40.0572 19.3497C40.5542 19.9431 40.9123 20.6447 41.1043 21.4012C41.2238 21.5235 41.2238 21.768 41.3433 22.0126C41.3433 21.9802 41.3559 21.9491 41.3783 21.9261C41.4007 21.9032 41.4311 21.8903 41.4628 21.8903C44.5699 21.6457 45.2869 24.0915 45.4064 26.5374C45.452 27.9087 45.2495 29.2769 44.8089 30.5729C44.2114 31.7958 42.8968 31.6735 41.7018 31.5513H41.4628C40.5068 34.2416 38.1168 35.3423 35.3682 35.5868C31.0512 36.2596 26.6595 36.2596 22.3425 35.5868C21.3151 35.5165 20.3415 35.0909 19.5815 34.3798C18.8215 33.6688 18.3202 32.7145 18.1599 31.6736H17.2039C15.7699 31.3067 15.0529 30.8175 14.8139 29.2277C14.6623 27.4193 14.8241 25.5978 15.2919 23.847Z" fill="#7196FF"/>
<path d="M25.5699 21.8909C26.7278 21.1994 28.0543 20.86 29.394 20.9126C31.2298 20.8106 33.0709 20.8925 34.8911 21.1572H35.3691C35.6783 21.2141 35.9656 21.359 36.1981 21.5753C36.4305 21.7916 36.5988 22.0705 36.6836 22.3801C37.4006 24.8259 36.9226 28.1277 34.0546 29.2283C31.1865 30.3289 28.0795 30.0844 26.1674 28.4946C24.2554 26.9048 23.4189 23.603 25.5699 21.8909Z" fill="#BACFFF"/>
<path d="M32.4987 27.1489H34.1718C34.3429 27.1514 34.5093 27.0911 34.6408 26.9789C34.7723 26.8668 34.8603 26.7102 34.8888 26.5375C34.8912 26.3623 34.8323 26.192 34.7227 26.0575C34.6131 25.9229 34.4601 25.8329 34.2913 25.8037H32.4987C31.6622 25.926 31.5427 27.1489 32.4987 27.1489ZM27.1212 26.782C27.1188 26.9572 27.1777 27.1274 27.2873 27.262C27.3969 27.3966 27.5499 27.4866 27.7187 27.5158H29.8697C29.9937 27.4477 30.0954 27.3438 30.1622 27.217C30.2289 27.0902 30.2576 26.9461 30.2449 26.8027C30.2322 26.6593 30.1785 26.5229 30.0905 26.4105C30.0025 26.2981 29.8842 26.2146 29.7502 26.1706H27.8382C27.4797 26.2929 27.1212 26.4152 27.1212 26.782Z" fill="#7196FF"/>
<path d="M39.9105 25.9265C41.464 25.9265 41.5835 23.3584 40.03 23.4807C39.873 23.4727 39.7161 23.4964 39.5681 23.5504C39.4201 23.6045 39.284 23.6878 39.1675 23.7957C39.0509 23.9036 38.9563 24.0339 38.889 24.1792C38.8217 24.3245 38.783 24.4819 38.7752 24.6425C38.7673 24.8031 38.7905 24.9637 38.8433 25.1151C38.8961 25.2666 38.9775 25.4059 39.083 25.5251C39.1884 25.6444 39.3157 25.7412 39.4577 25.8101C39.5997 25.8789 39.7535 25.9185 39.9105 25.9265ZM21.5072 26.2934C23.1802 26.2934 23.2997 23.7253 21.6267 23.7253C19.9536 23.7253 19.8341 26.2934 21.5072 26.2934Z" fill="#23272A"/>
<path d="M42.0596 29.3505C42.1148 29.5238 42.231 29.6699 42.3856 29.7603C42.5403 29.8507 42.7223 29.879 42.8962 29.8397C43.8522 29.7174 43.9717 28.8614 44.0912 28.0053C44.1864 26.9393 44.1056 25.8644 43.8522 24.8258H43.7327C43.6563 24.675 43.5311 24.556 43.3786 24.4891C43.226 24.4222 43.0555 24.4115 42.8962 24.4589C42.8074 24.3908 42.7018 24.3493 42.5913 24.3391C42.4808 24.3289 42.3697 24.3504 42.2704 24.4012C42.1712 24.4519 42.0877 24.53 42.0294 24.6266C41.971 24.7232 41.9401 24.8345 41.9401 24.9481C41.9401 26.4156 42.0596 27.883 42.0596 29.3505ZM17.4423 29.8397C17.5792 29.8111 17.7021 29.7343 17.7895 29.6225C17.8768 29.5108 17.9231 29.3713 17.9203 29.2282C18.0398 28.0053 18.1593 26.6601 18.1593 25.3149V25.0704C18.1337 24.9857 18.0904 24.9078 18.0325 24.842C17.9746 24.7762 17.9034 24.724 17.8238 24.6891C17.7443 24.6542 17.6583 24.6375 17.5718 24.6399C17.4852 24.6424 17.4003 24.6641 17.3228 24.7035C17.1105 24.8015 16.9405 24.9755 16.8447 25.1926C16.6057 26.0487 15.4107 30.4511 17.4423 29.8397Z" fill="#BACFFF"/>
<path d="M237.471 44.7909H66.6851C63.795 44.7909 61.4521 47.1885 61.4521 50.146V147.767C61.4521 150.724 63.795 153.122 66.6851 153.122H237.471C240.361 153.122 242.704 150.724 242.704 147.767V50.146C242.704 47.1885 240.361 44.7909 237.471 44.7909Z" fill="#FFE75C"/>
<path d="M97.1298 44.7909L117.705 153.11H91.54L92.7294 44.7909H97.1298Z" fill="#C2FFD1"/>
<path d="M242.703 147.755V130.594L120.442 44.7909H104.624L162.782 153.11H237.47C238.858 153.11 240.189 152.546 241.171 151.541C242.152 150.537 242.703 149.175 242.703 147.755Z" fill="#C2FFD1"/>
<path d="M221.537 87.8754C218.088 74.366 217.493 73.2706 212.974 73.2706C206.433 73.2706 203.578 75.7047 204.53 80.8164C205.481 85.9281 207.146 93.2305 207.146 93.2305C205.719 96.0297 205.362 97.7336 205.719 99.5592C199.772 99.0724 195.848 101.02 193.112 101.872C188.236 95.4212 185.976 93.2305 169.921 95.0561L124.727 89.701C114.855 84.5893 111.525 84.8327 104.984 87.8754C102.444 86.2361 99.6165 85.1199 96.6589 84.5893C96.0642 82.0335 95.8264 80.2079 93.2099 78.8691L96.1832 71.3233L92.1395 58.0573C87.858 58.0573 88.6905 59.1526 82.0303 70.7148C76.0838 74.4877 73.5862 78.0172 72.159 81.1815C70.7318 84.3459 69.0668 88.1188 70.9697 95.1778C71.8022 97.7336 73.7051 98.3422 77.0352 99.5592C84.0522 111.243 88.0958 113.434 102.13 113.069C98.9186 121.223 98.5618 125.97 106.054 131.446C105.46 143.617 105.341 145.321 113.785 153.11H178.008C186.095 149.581 189.425 145.321 194.539 124.752C208.454 127.673 212.617 129.864 225.224 121.466C232.241 120.249 233.668 117.937 233.43 112.825C232.479 97.3685 228.554 92.5003 221.537 87.8754Z" fill="#698EFF"/>
<path d="M105.454 60.734C104.503 57.5697 98.7939 57.9348 92.1338 58.0565L93.6799 72.783C99.5075 73.6349 101.648 73.5132 105.454 71.8093C109.26 70.1054 106.287 63.8984 105.454 60.734Z" fill="#698EFF"/>
<path d="M218.441 77.1652C216.419 71.3233 214.873 70.8365 206.667 69.1326C198.46 67.4287 198.46 69.2543 195.844 75.8264C193.227 82.3986 195.011 84.5893 198.222 85.563C201.434 86.5366 204.05 88.1188 208.451 87.3886C215.111 86.2932 218.441 77.1652 218.441 77.1652Z" fill="#698EFF"/>
<path d="M166.584 136.558C162.417 136.399 158.275 135.828 154.215 134.854C141.728 131.933 136.614 128.647 136.376 128.525C133.403 126.578 132.57 120.127 139.587 107.713C139.699 107.597 139.847 107.522 140.005 107.501C140.164 107.481 140.325 107.515 140.462 107.6C140.599 107.684 140.705 107.813 140.762 107.966C140.819 108.119 140.824 108.287 140.776 108.443C133.878 120.736 135.305 126.091 137.089 127.308C138.873 128.525 142.322 130.594 154.453 133.393C173.839 137.896 175.266 133.758 178.953 122.805C179.177 121.935 179.455 121.082 179.786 120.249C183.235 110.026 185.019 107.348 191.679 102.115C191.754 102.044 191.843 101.99 191.94 101.958C192.037 101.925 192.14 101.914 192.241 101.926C192.343 101.937 192.44 101.971 192.528 102.025C192.616 102.078 192.691 102.15 192.749 102.236C192.851 102.385 192.895 102.567 192.873 102.747C192.851 102.927 192.765 103.092 192.63 103.21C186.208 108.322 184.424 110.877 181.094 120.736C180.856 121.588 180.499 122.44 180.261 123.17C177.526 131.568 175.861 136.558 166.584 136.558Z" fill="#4F7AFF"/>
<path d="M202.744 116.232C199.629 116.201 196.539 115.667 193.586 114.65C193.418 114.594 193.276 114.476 193.188 114.318C193.1 114.161 193.072 113.975 193.111 113.798C193.189 113.616 193.327 113.468 193.5 113.379C193.674 113.29 193.873 113.266 194.062 113.311C202.506 116.111 208.928 114.407 214.518 112.216C214.604 112.175 214.697 112.153 214.791 112.149C214.886 112.145 214.98 112.161 215.069 112.195C215.157 112.229 215.238 112.281 215.307 112.347C215.376 112.413 215.431 112.493 215.47 112.581C215.509 112.669 215.532 112.764 215.535 112.861C215.539 112.957 215.523 113.054 215.49 113.144C215.457 113.235 215.407 113.318 215.342 113.388C215.277 113.459 215.199 113.515 215.113 113.555C211.192 115.239 206.995 116.147 202.744 116.232Z" fill="#4F7AFF"/>
<path d="M221.89 109.782L221.414 109.538C216.927 105.694 211.814 102.687 206.31 100.654C205.834 100.532 205.715 100.167 205.834 99.6801C205.859 99.5959 205.902 99.5184 205.96 99.4529C206.018 99.3874 206.089 99.3355 206.168 99.3007C206.247 99.266 206.333 99.2493 206.419 99.2518C206.505 99.2542 206.589 99.2758 206.666 99.315C214.278 101.749 220.344 106.861 222.365 108.443C222.509 108.582 222.599 108.768 222.621 108.968C222.643 109.169 222.594 109.371 222.484 109.538L221.89 109.782Z" fill="#4F7AFF"/>
<path d="M102.719 112.581H102.481C102.395 112.542 102.317 112.485 102.252 112.415C102.188 112.345 102.137 112.262 102.104 112.171C102.071 112.08 102.056 111.984 102.059 111.887C102.063 111.791 102.085 111.696 102.125 111.608L107.001 101.384C107.118 101.204 107.181 100.993 107.181 100.776C107.181 100.559 107.118 100.348 107.001 100.167C105.219 96.5899 104.321 92.6202 104.384 88.6053C104.384 88.5094 104.403 88.4144 104.439 88.3258C104.474 88.2372 104.527 88.1568 104.593 88.0889C104.66 88.0211 104.738 87.9673 104.825 87.9306C104.911 87.8939 105.004 87.8751 105.098 87.8751C105.192 87.8751 105.284 87.8939 105.371 87.9306C105.458 87.9673 105.536 88.0211 105.602 88.0889C105.669 88.1568 105.721 88.2372 105.757 88.3258C105.793 88.4144 105.811 88.5094 105.811 88.6053C105.72 92.4145 106.579 96.1846 108.309 99.5589C108.483 99.9615 108.572 100.397 108.572 100.837C108.572 101.277 108.483 101.712 108.309 102.115L103.433 112.216C103.363 112.343 103.258 112.445 103.131 112.511C103.003 112.576 102.86 112.6 102.719 112.581Z" fill="#4F7AFF"/>
<path d="M112.589 133.272C110.575 133.323 108.566 133.035 106.643 132.42C106.474 132.364 106.332 132.246 106.244 132.088C106.156 131.931 106.129 131.745 106.167 131.568C106.286 131.081 106.643 130.96 107.119 131.081C112.352 132.663 119.606 131.69 130.429 127.917C130.515 127.876 130.608 127.853 130.702 127.85C130.797 127.846 130.891 127.862 130.98 127.896C131.068 127.93 131.149 127.981 131.218 128.048C131.287 128.114 131.342 128.194 131.381 128.282C131.425 128.476 131.401 128.679 131.315 128.857C131.228 129.035 131.083 129.176 130.905 129.256C123.293 131.933 117.347 133.272 112.589 133.272Z" fill="#4F7AFF"/>
<path d="M102.724 100.532H102.605C102.248 100.532 92.734 99.3153 86.9063 94.0819C86.7893 93.948 86.7246 93.7747 86.7246 93.5951C86.7246 93.4154 86.7893 93.2421 86.9063 93.1082C86.9518 93.0248 87.0158 92.9535 87.0933 92.9C87.1707 92.8466 87.2593 92.8126 87.3519 92.8008C87.4446 92.7889 87.5386 92.7996 87.6265 92.8318C87.7144 92.8641 87.7936 92.9171 87.8578 92.9865C93.3286 97.9765 102.724 99.0719 102.843 99.0719C102.962 99.0719 103.438 99.437 103.438 99.9238C103.409 100.096 103.322 100.252 103.191 100.363C103.06 100.475 102.895 100.535 102.724 100.532Z" fill="#4F7AFF"/>
<path d="M81.0782 88.2398C80.8032 88.2168 80.5476 88.086 80.3646 87.8747C80.3021 87.6771 80.303 87.4642 80.3672 87.2671C80.4314 87.07 80.5555 86.8991 80.7214 86.7793C85.2408 84.2235 91.3063 83.9801 95.5878 83.8584C95.6815 83.8504 95.7758 83.8614 95.8654 83.8907C95.9549 83.92 96.038 83.9671 96.1098 84.0292C96.1816 84.0914 96.2407 84.1674 96.2838 84.253C96.3268 84.3385 96.353 84.4319 96.3608 84.5278C96.3687 84.6237 96.3579 84.7202 96.3293 84.8119C96.3006 84.9035 96.2546 84.9885 96.1939 85.062C96.1331 85.1354 96.0589 85.1959 95.9753 85.24C95.8917 85.2841 95.8004 85.3109 95.7067 85.3189C91.4252 85.4406 85.7165 85.684 81.435 88.1181L81.0782 88.2398Z" fill="#4F7AFF"/>
<path d="M147.079 105.887H146.365C146.176 105.887 145.994 105.81 145.86 105.674C145.727 105.537 145.651 105.351 145.651 105.157C145.651 104.964 145.727 104.778 145.86 104.641C145.994 104.504 146.176 104.427 146.365 104.427C151.717 104.549 156.95 102.845 161.469 101.384C164.253 100.233 167.172 99.4553 170.151 99.0719C170.627 99.0719 170.984 99.3153 170.984 99.8021C170.984 99.9958 170.909 100.182 170.775 100.318C170.641 100.455 170.459 100.532 170.27 100.532C167.411 100.875 164.611 101.611 161.945 102.723C157.426 104.184 152.43 105.887 147.079 105.887Z" fill="#4F7AFF"/>
<path d="M136.855 104.062H136.617C133.061 102.879 129.838 100.833 127.221 98.0986C125.812 96.555 124.057 95.3855 122.107 94.6908C122.021 94.6514 121.943 94.5948 121.878 94.5244C121.814 94.4539 121.763 94.371 121.73 94.2804C121.697 94.1898 121.682 94.0933 121.685 93.9967C121.689 93.9 121.711 93.805 121.751 93.7172C121.806 93.5447 121.921 93.3993 122.075 93.3094C122.229 93.2194 122.41 93.1912 122.583 93.2304C124.719 94.0036 126.638 95.2988 128.173 97.0033C130.694 99.5646 133.741 101.519 137.093 102.723C137.175 102.75 137.251 102.794 137.315 102.853C137.379 102.912 137.43 102.984 137.464 103.065C137.497 103.146 137.514 103.234 137.511 103.322C137.509 103.41 137.488 103.496 137.45 103.575C137.422 103.715 137.347 103.84 137.238 103.929C137.13 104.018 136.994 104.065 136.855 104.062Z" fill="#4F7AFF"/>
<path d="M159.574 151.406C151.724 141.669 138.761 135.097 132.695 135.706C126.63 136.314 122.348 142.4 119.256 152.745V153.11H123.062L128.057 148.12C133.409 142.765 134.717 144.104 137.809 145.686C140.901 147.268 144.707 149.824 149.821 153.11H161.001L159.574 151.406Z" fill="#4F7AFF"/>
<path d="M171.817 151.406C171.666 151.399 171.52 151.35 171.394 151.264C171.268 151.178 171.168 151.059 171.103 150.92C171.062 150.823 171.045 150.717 171.056 150.612C171.066 150.507 171.104 150.406 171.163 150.32C171.223 150.234 171.304 150.166 171.398 150.121C171.492 150.077 171.595 150.059 171.698 150.068C173.504 149.712 175.21 148.948 176.691 147.832C178.173 146.716 179.392 145.276 180.261 143.617C180.3 143.529 180.355 143.449 180.424 143.383C180.493 143.317 180.574 143.265 180.662 143.231C180.751 143.197 180.845 143.181 180.939 143.185C181.034 143.189 181.127 143.211 181.212 143.252C181.369 143.351 181.488 143.501 181.553 143.677C181.617 143.853 181.623 144.046 181.569 144.226C180.619 146.106 179.253 147.734 177.581 148.98C175.909 150.226 173.976 151.057 171.936 151.406H171.817Z" fill="#4F7AFF"/>
<path d="M176.34 142.886H175.745C175.556 142.886 175.374 142.809 175.24 142.672C175.106 142.535 175.031 142.349 175.031 142.156C175.031 141.962 175.106 141.776 175.24 141.639C175.374 141.503 175.556 141.426 175.745 141.426C177.598 141.527 179.45 141.196 181.16 140.459C182.87 139.721 184.394 138.595 185.616 137.166C185.732 137.028 185.893 136.94 186.069 136.917C186.245 136.895 186.423 136.94 186.568 137.044C186.652 137.104 186.722 137.181 186.774 137.27C186.827 137.36 186.86 137.46 186.871 137.564C186.882 137.668 186.872 137.773 186.84 137.872C186.808 137.972 186.756 138.063 186.687 138.139C185.389 139.636 183.795 140.833 182.012 141.651C180.228 142.469 178.294 142.89 176.34 142.886Z" fill="#4F7AFF"/>
<path d="M194.535 125.482H194.297L188.945 124.265C188.842 124.274 188.739 124.255 188.645 124.211C188.551 124.167 188.471 124.098 188.411 124.012C188.351 123.926 188.313 123.826 188.303 123.721C188.292 123.616 188.309 123.51 188.35 123.413C188.405 123.241 188.521 123.095 188.675 123.005C188.829 122.915 189.01 122.887 189.183 122.926L194.654 124.022C194.751 124.049 194.841 124.096 194.918 124.161C194.996 124.227 195.059 124.308 195.104 124.4C195.149 124.491 195.175 124.592 195.179 124.695C195.183 124.797 195.166 124.9 195.129 124.995C195.129 125.239 194.773 125.482 194.535 125.482Z" fill="#4F7AFF"/>
<path d="M114.017 148.607H113.779C109.735 146.781 107.119 143.617 106.881 139.966C106.881 139.772 106.956 139.586 107.09 139.449C107.224 139.312 107.405 139.235 107.594 139.235C107.682 139.217 107.772 139.219 107.859 139.241C107.945 139.264 108.026 139.306 108.094 139.364C108.163 139.423 108.217 139.496 108.255 139.579C108.292 139.662 108.31 139.753 108.308 139.844C108.546 143.495 111.638 146.051 114.374 147.268C114.46 147.307 114.538 147.364 114.602 147.434C114.667 147.505 114.718 147.588 114.751 147.678C114.784 147.769 114.799 147.865 114.796 147.962C114.792 148.059 114.77 148.154 114.73 148.242C114.651 148.359 114.544 148.454 114.419 148.517C114.294 148.581 114.156 148.612 114.017 148.607Z" fill="#4F7AFF"/>
<path d="M205.956 87.7535C210.475 87.145 211.665 85.6845 212.854 83.8589C212.886 83.6975 212.979 83.5556 213.112 83.4643C213.246 83.373 213.41 83.3398 213.568 83.3721C213.725 83.4044 213.864 83.4995 213.953 83.6364C214.043 83.7733 214.075 83.941 214.043 84.1023C214.043 84.5892 213.806 85.3194 213.806 85.6845C212.497 91.1613 210.357 92.9869 206.67 91.1613L205.956 87.7535Z" fill="#4F7AFF"/>
<path d="M95.469 73.2701C93.2093 72.7833 91.9011 71.9314 91.3064 69.9841C90.7117 68.0368 89.2846 68.2802 89.4035 69.9841C89.5224 71.688 90.236 77.7733 93.8039 77.5299L95.469 73.2701Z" fill="#4F7AFF"/>
<path d="M147.556 109.782C146.366 108.93 144.583 110.39 142.561 112.459C140.539 114.528 139.706 117.206 141.966 118.301C144.226 119.397 145.534 116.354 146.604 114.528C147.675 112.703 148.864 110.634 147.556 109.782Z" fill="#B7CCFF"/>
<path d="M122.972 100.971C123.642 100.694 123.886 99.7119 123.517 98.7771C123.148 97.8423 122.306 97.309 121.636 97.5859C120.966 97.8629 120.722 98.8453 121.091 99.7801C121.46 100.715 122.303 101.248 122.972 100.971Z" fill="#B7CCFF"/>
<path d="M143.75 134.61C146.962 135.949 147.556 136.923 147.199 137.653C146.843 138.383 146.248 138.018 143.75 136.557C141.253 135.097 141.966 133.88 143.75 134.61Z" fill="#B7CCFF"/>
<path d="M176.453 100.811C177.287 100.416 177.853 99.8491 177.715 99.544C177.577 99.2389 176.789 99.3116 175.954 99.7063C175.119 100.101 174.554 100.668 174.692 100.973C174.83 101.279 175.618 101.206 176.453 100.811Z" fill="#B7CCFF"/>
<path d="M107.597 110.756C106.17 110.269 104.624 113.19 104.624 115.867C104.624 118.545 107.954 121.223 109.619 120.371C111.284 119.519 110.452 117.45 109.381 115.867C108.311 114.285 108.787 111.121 107.597 110.756Z" fill="#B7CCFF"/>
<path d="M201.624 105.159C203.123 104.968 204.293 104.435 204.236 103.968C204.179 103.501 202.918 103.277 201.419 103.468C199.919 103.659 198.75 104.193 198.807 104.66C198.864 105.127 200.125 105.35 201.624 105.159Z" fill="#B7CCFF"/>
<path d="M96.0585 88.6057C95.285 89.0084 94.4289 89.217 93.561 89.2142C92.7284 89.2142 92.1338 88.9708 92.1338 88.7274C92.1338 88.484 93.2042 87.6321 94.7503 87.5104C96.2964 87.3886 97.01 87.9972 96.0585 88.6057Z" fill="#B7CCFF"/>
<path d="M167.661 128.039H165.758C165.517 127.954 165.261 127.926 165.008 127.959C164.755 127.992 164.513 128.083 164.3 128.227C164.087 128.37 163.909 128.562 163.78 128.786C163.651 129.011 163.574 129.263 163.555 129.524C163.537 129.784 163.576 130.045 163.672 130.287C163.767 130.528 163.915 130.745 164.105 130.919C164.295 131.093 164.521 131.22 164.767 131.29C165.012 131.361 165.27 131.372 165.52 131.325L167.423 131.568C167.878 131.603 168.329 131.459 168.682 131.164C169.036 130.87 169.267 130.448 169.326 129.986C169.361 129.743 169.343 129.495 169.275 129.259C169.207 129.023 169.09 128.805 168.931 128.62C168.773 128.435 168.578 128.288 168.358 128.187C168.139 128.087 167.901 128.036 167.661 128.039Z" fill="#4F7AFF"/>
<path d="M106.405 122.926H104.502C104.261 122.841 104.005 122.814 103.752 122.846C103.499 122.879 103.257 122.971 103.044 123.114C102.831 123.257 102.653 123.449 102.524 123.674C102.395 123.899 102.318 124.151 102.299 124.411C102.281 124.671 102.32 124.932 102.416 125.174C102.511 125.416 102.659 125.632 102.849 125.806C103.039 125.98 103.265 126.107 103.511 126.178C103.756 126.248 104.014 126.26 104.265 126.212H106.167C106.386 126.246 106.61 126.236 106.825 126.181C107.04 126.125 107.242 126.027 107.419 125.891C107.596 125.755 107.745 125.584 107.857 125.388C107.969 125.193 108.041 124.976 108.07 124.752C108.071 124.288 107.9 123.841 107.591 123.502C107.281 123.163 106.858 122.957 106.405 122.926Z" fill="#4F7AFF"/>
<path d="M129.603 89.5789C137.333 100.411 138.76 110.634 168.374 93.9604L129.603 89.5789Z" fill="#4F7AFF"/>
<path d="M162.185 63.7766C162.682 63.406 163.098 62.9329 163.405 62.3879C163.712 61.8428 163.904 61.2379 163.969 60.6122C163.981 59.5781 163.678 58.5658 163.103 57.7155C162.527 56.8652 161.708 56.2188 160.758 55.8657L158.736 55.2571H158.617C155.406 55.0137 153.86 56.5959 151.125 58.6649C149.34 60.0652 147.428 61.2878 145.416 62.3161L162.185 63.7766Z" fill="#55F186"/>
<path d="M152.907 64.0207C152.759 64.0024 152.618 63.9488 152.494 63.8642C152.37 63.7796 152.267 63.6665 152.194 63.5338C152.135 63.4239 152.101 63.3021 152.094 63.1772C152.087 63.0522 152.107 62.9272 152.152 62.8111C152.198 62.6949 152.268 62.5903 152.357 62.5049C152.446 62.4195 152.553 62.3553 152.669 62.3168C154.647 61.3255 156.393 59.9103 157.788 58.1672C159.183 56.4242 160.196 54.3942 160.757 52.2151C160.82 51.9892 160.968 51.7981 161.169 51.684C161.369 51.5699 161.606 51.542 161.827 51.6066C162.048 51.6712 162.235 51.8228 162.346 52.0282C162.458 52.2337 162.485 52.476 162.422 52.702C161.807 55.1311 160.679 57.3926 159.117 59.3272C157.555 61.2618 155.598 62.8224 153.383 63.899L152.907 64.0207Z" fill="#008D3C"/>
<path d="M156.001 63.4121L143.276 62.3168C139.113 60.8563 137.091 57.5702 137.686 53.7973C138.281 50.0244 140.897 49.0507 144.227 49.2942C147.557 49.5376 149.46 52.5802 150.887 54.8927C153.98 60.2478 156.001 63.4121 156.001 63.4121Z" fill="#26CB7A"/>
<path d="M150.65 66.2113C150.557 66.2113 150.466 66.1893 150.384 66.1471C150.301 66.1048 150.229 66.0435 150.174 65.9679C146.011 62.8035 143.157 58.7872 142.443 54.8926C142.324 54.4058 142.562 53.9189 143.038 53.9189C143.147 53.882 143.263 53.8686 143.377 53.8797C143.492 53.8907 143.603 53.9259 143.704 53.9831C143.804 54.0403 143.892 54.1182 143.962 54.2119C144.031 54.3056 144.081 54.413 144.108 54.5275C144.465 56.2314 145.773 60.3694 151.244 64.5074C151.429 64.6721 151.544 64.9031 151.566 65.1524C151.588 65.4017 151.515 65.6502 151.363 65.8462C151.284 65.9633 151.177 66.0581 151.052 66.1219C150.927 66.1857 150.789 66.2164 150.65 66.2113Z" fill="#008D3C"/>
<path d="M123.651 68.5242L127.814 68.7676C127.982 68.7966 128.134 68.8862 128.243 69.0201C128.352 69.1541 128.411 69.3235 128.409 69.4978L126.863 85.9282C126.834 86.1001 126.747 86.256 126.616 86.3676C126.485 86.4792 126.319 86.5392 126.149 86.5368L121.986 86.0499C120.777 85.827 119.68 85.1851 118.879 84.2322C118.078 83.2792 117.621 82.0732 117.586 80.8165C117.687 78.1229 117.965 75.4393 118.418 72.7839C118.646 71.5493 119.3 70.4397 120.26 69.6576C121.221 68.8755 122.425 68.4732 123.651 68.5242Z" fill="#698EFF"/>
<path d="M122.823 71.6885H125.083C125.558 71.6885 125.796 72.1753 125.796 72.6622L124.964 81.425C124.965 81.5321 124.944 81.6382 124.901 81.7357C124.858 81.8333 124.794 81.92 124.715 81.9897C124.635 82.0594 124.542 82.1103 124.441 82.1389C124.34 82.1676 124.234 82.1731 124.131 82.1553L121.99 81.9119C121.56 81.8054 121.175 81.5572 120.896 81.2054C120.617 80.8536 120.458 80.4176 120.444 79.9646C120.46 77.7202 120.659 75.4811 121.039 73.2707C121.119 72.84 121.338 72.4494 121.662 72.1623C121.986 71.8752 122.395 71.7082 122.823 71.6885Z" fill="#B7CCFF"/>
<path d="M123.056 75.5828C122.841 78.4173 122.802 81.2627 122.937 84.1023C123.13 86.2232 123.95 88.2335 125.289 89.8645C126.628 91.4955 128.421 92.6698 130.429 93.2303C133.759 94.2039 142.203 95.2993 148.15 95.7861C154.097 96.2729 162.541 96.8815 166.109 96.5163C168.188 96.398 170.176 95.6016 171.781 94.2438C173.386 92.886 174.524 91.0381 175.029 88.9705C175.737 86.2181 176.215 83.4086 176.456 80.5728C176.789 77.7452 176.829 74.8895 176.575 72.0533C176.416 69.9211 175.607 67.8935 174.263 66.2561C172.919 64.6186 171.107 63.4537 169.082 62.9253C165.752 61.9517 157.308 60.8563 151.361 60.2478C145.415 59.6393 136.971 59.1524 133.403 59.5176C131.33 59.7149 129.366 60.5548 127.772 61.9248C126.178 63.2949 125.03 65.13 124.483 67.1851C123.753 69.9328 123.275 72.7442 123.056 75.5828Z" fill="#698EFF"/>
<path d="M152.672 83.9799L143.871 83.1279C138.519 82.3977 136.973 80.0853 136.616 76.7992C136.247 74.0351 136.408 71.2238 137.092 68.5232C137.161 67.9682 137.343 67.4343 137.626 66.9555C137.909 66.4767 138.286 66.0636 138.734 65.7428C139.182 65.422 139.69 65.2004 140.227 65.0924C140.763 64.9844 141.316 64.9922 141.849 65.1154L156.715 66.4541C157.831 66.5772 158.855 67.1435 159.567 68.0311C160.278 68.9188 160.621 70.057 160.521 71.2007L159.927 77.1643C159.57 82.0326 156.953 84.345 152.672 83.9799Z" fill="#B7CCFF"/>
<path d="M143.279 75.461L141.376 75.2176C140.939 75.1789 140.503 75.3065 140.152 75.5759C139.801 75.8454 139.56 76.2378 139.473 76.6781C139.436 76.9159 139.453 77.1593 139.521 77.3897C139.59 77.62 139.709 77.8313 139.87 78.0074C140.03 78.1835 140.228 78.3197 140.448 78.4057C140.668 78.4917 140.904 78.5252 141.139 78.5037L143.041 78.7471C143.26 78.7814 143.484 78.7707 143.699 78.7156C143.914 78.6605 144.116 78.562 144.293 78.426C144.47 78.29 144.619 78.1191 144.731 77.9235C144.843 77.7279 144.915 77.5113 144.944 77.2866C144.981 77.0488 144.965 76.8054 144.896 76.575C144.828 76.3447 144.708 76.1334 144.548 75.9573C144.387 75.7812 144.19 75.645 143.97 75.559C143.75 75.473 143.514 75.4395 143.279 75.461Z" fill="#698EFF"/>
<path d="M152.199 76.1915H150.296C149.84 76.1201 149.375 76.2323 148.998 76.5047C148.621 76.777 148.361 77.1882 148.274 77.652C148.273 78.1158 148.445 78.5626 148.754 78.9017C149.063 79.2408 149.487 79.4467 149.939 79.4776L151.842 79.721C152.311 79.7593 152.777 79.6189 153.15 79.3267C153.523 79.0346 153.778 78.6115 153.864 78.1388C153.868 77.6619 153.7 77.2002 153.393 76.8412C153.087 76.4823 152.662 76.2511 152.199 76.1915Z" fill="#698EFF"/>
<path d="M165.282 75.7048C166.661 75.7048 167.779 74.5605 167.779 73.149C167.779 71.7374 166.661 70.5931 165.282 70.5931C163.902 70.5931 162.784 71.7374 162.784 73.149C162.784 74.5605 163.902 75.7048 165.282 75.7048Z" fill="black"/>
<path d="M131.977 72.54C133.356 72.54 134.475 71.3957 134.475 69.9841C134.475 68.5726 133.356 67.4283 131.977 67.4283C130.598 67.4283 129.479 68.5726 129.479 69.9841C129.479 71.3957 130.598 72.54 131.977 72.54Z" fill="black"/>
<path d="M152.79 92.2564C152.069 92.419 151.321 92.416 150.602 92.2477C149.882 92.0793 149.207 91.7498 148.627 91.2827C147.557 90.5525 146.843 89.5789 147.081 88.7269C147.319 87.875 154.455 85.5625 155.882 86.1711C156.171 86.3379 156.404 86.5893 156.553 86.8928C156.701 87.1964 156.757 87.5384 156.714 87.875C156.645 88.9534 156.219 89.9755 155.505 90.7722C154.792 91.5688 153.834 92.0924 152.79 92.2564Z" fill="#E9459D"/>
<path d="M155.886 86.171C154.159 86.0152 152.418 86.2223 150.772 86.7795C150.61 87.3315 150.569 87.9135 150.653 88.4835C150.691 89.2555 150.918 90.0053 151.313 90.6644C151.708 91.3235 152.258 91.8708 152.913 92.2563C153.926 92.0482 154.846 91.5081 155.532 90.7176C156.219 89.927 156.635 88.9292 156.718 87.8749C156.761 87.5384 156.705 87.1964 156.557 86.8928C156.408 86.5892 156.175 86.3379 155.886 86.171Z" fill="black"/>
<path d="M178.359 73.6354L174.196 73.1486C174.026 73.1462 173.861 73.2062 173.73 73.3178C173.599 73.4294 173.511 73.5853 173.483 73.7572L172.056 90.1876C172.053 90.3619 172.112 90.5313 172.221 90.6652C172.33 90.7992 172.482 90.8888 172.65 90.9178L176.813 91.1612C178.04 91.2122 179.243 90.8099 180.204 90.0278C181.165 89.2457 181.819 88.136 182.046 86.9015C182.519 84.2513 182.758 81.5629 182.76 78.8688C182.747 77.6055 182.299 76.3873 181.493 75.4296C180.688 74.4719 179.578 73.8364 178.359 73.6354Z" fill="#698EFF"/>
<path d="M178.005 76.4342L175.864 76.1908C175.761 76.1729 175.655 76.1785 175.555 76.2071C175.454 76.2357 175.36 76.2867 175.281 76.3563C175.201 76.426 175.138 76.5127 175.095 76.6103C175.052 76.7079 175.03 76.814 175.032 76.921L174.199 85.6839C174.199 86.1707 174.437 86.6575 174.913 86.6575H177.054C177.52 86.6613 177.971 86.4899 178.322 86.1758C178.672 85.8617 178.898 85.4268 178.956 84.9536C179.337 82.7432 179.535 80.5041 179.551 78.2598C179.497 77.8339 179.321 77.4338 179.046 77.1092C178.771 76.7846 178.409 76.5499 178.005 76.4342Z" fill="#B7CCFF"/>
<path d="M152.789 92.2565C152.068 92.4191 151.32 92.4161 150.6 92.2478C149.881 92.0794 149.206 91.7499 148.626 91.2828C149.918 90.1195 151.41 89.2116 153.026 88.6053C154.219 88.1981 155.458 87.9526 156.713 87.8751C156.644 88.9535 156.218 89.9756 155.504 90.7722C154.79 91.5689 153.832 92.0925 152.789 92.2565Z" fill="#FFADD6"/>
<path d="M196.681 58.909C195.931 58.4374 195.296 57.7983 194.822 57.0394C194.348 56.2806 194.048 55.4219 193.945 54.5276L193.47 51.3632C193.47 51.2415 193.351 51.1198 193.113 51.1198L192.875 51.3632L192.399 54.5276C192.274 55.43 191.953 56.2923 191.459 57.0506C190.965 57.809 190.311 58.4441 189.545 58.909L189.188 59.1524C189.069 59.2742 189.069 59.2741 189.069 59.3959C189.064 59.4618 189.071 59.5282 189.092 59.591C189.112 59.6537 189.145 59.7116 189.188 59.761L189.545 60.0044C190.311 60.4693 190.965 61.1044 191.459 61.8628C191.953 62.6212 192.274 63.4834 192.399 64.3858L192.875 67.5502L193.113 67.7936C193.351 67.7936 193.47 67.6719 193.47 67.5502L193.945 64.3858C194.048 63.4916 194.348 62.6328 194.822 61.874C195.296 61.1152 195.931 60.476 196.681 60.0044L197.037 59.761L197.275 59.3959C197.275 59.2741 197.156 59.2742 197.037 59.1524L196.681 58.909Z" fill="#FD78B7"/>
<path d="M81.7872 127.43C81.0285 126.927 80.3822 126.266 79.8903 125.49C79.3984 124.714 79.0722 123.841 78.9328 122.927L78.4571 119.884C78.4571 119.641 78.3382 119.641 78.2192 119.641C77.9814 119.641 77.8624 119.641 77.8624 119.884L77.3867 122.927C77.2686 123.833 76.9636 124.703 76.4921 125.479C76.0205 126.256 75.393 126.92 74.6513 127.43L74.2945 127.673C74.2314 127.673 74.1709 127.699 74.1263 127.745C74.0817 127.79 74.0566 127.852 74.0566 127.917C74.0566 127.981 74.0817 128.043 74.1263 128.089C74.1709 128.134 74.2314 128.16 74.2945 128.16L74.6513 128.403C75.4039 128.901 76.0396 129.562 76.5125 130.341C76.9855 131.12 77.284 131.996 77.3867 132.907L77.8624 135.949C77.8624 136.071 77.9814 136.193 78.2192 136.193L78.4571 135.949L78.9328 132.907C79.0571 131.988 79.3771 131.108 79.8704 130.33C80.3636 129.552 81.018 128.894 81.7872 128.403L82.144 128.16C82.2629 128.16 82.2629 128.038 82.2629 127.917C82.2629 127.795 82.2629 127.673 82.144 127.673L81.7872 127.43Z" fill="white"/>
<path d="M219.987 131.081C218.856 130.334 217.891 129.352 217.153 128.199C216.416 127.046 215.923 125.748 215.706 124.388L215.111 119.641C214.992 119.398 214.873 119.276 214.635 119.276C214.397 119.276 214.16 119.398 214.16 119.641L213.446 124.388C213.276 125.763 212.802 127.08 212.06 128.24C211.318 129.4 210.328 130.372 209.165 131.081L208.57 131.446C208.451 131.568 208.451 131.69 208.451 131.933C208.445 131.999 208.453 132.066 208.474 132.128C208.494 132.191 208.527 132.249 208.57 132.298L209.165 132.664C210.32 133.412 211.302 134.41 212.041 135.587C212.781 136.764 213.26 138.093 213.446 139.479L214.16 144.104C214.16 144.233 214.21 144.357 214.299 144.448C214.388 144.54 214.509 144.591 214.635 144.591C214.873 144.591 214.992 144.347 215.111 144.104L215.706 139.479C215.935 138.107 216.432 136.796 217.167 135.625C217.903 134.453 218.862 133.446 219.987 132.664L220.582 132.298L220.82 131.933C220.82 131.839 220.798 131.746 220.757 131.661C220.716 131.577 220.656 131.503 220.582 131.446L219.987 131.081Z" fill="#66BCFF"/>
</g>
<defs>
<clipPath id="clip0_518_82099">
<rect width="400" height="191" fill="white"/>
</clipPath>
<clipPath id="clip1_518_82099">
<path d="M6 164.549C6 162.194 7.90872 160.285 10.2632 160.285H391.737C394.091 160.285 396 162.194 396 164.549V182.629C396 184.983 394.091 186.892 391.737 186.892H10.2632C7.90872 186.892 6 184.983 6 182.629V164.549Z" fill="white"/>
</clipPath>
<clipPath id="clip2_518_82099">
<rect width="10.6581" height="10.6581" fill="white" transform="translate(15.5918 168.26)"/>
</clipPath>
<clipPath id="clip3_518_82099">
<rect width="10.6581" height="10.6581" fill="white" transform="translate(262.773 168.26)"/>
</clipPath>
<clipPath id="clip4_518_82099">
<rect width="10.6581" height="10.6581" fill="white" transform="translate(284.09 168.26)"/>
</clipPath>
<clipPath id="clip5_518_82099">
<rect width="10.6581" height="10.6581" fill="white" transform="translate(305.406 168.26)"/>
</clipPath>
<clipPath id="clip6_518_82099">
<rect width="10.6581" height="10.6581" fill="white" transform="translate(348.038 168.26)"/>
</clipPath>
<clipPath id="clip7_518_82099">
<rect width="10.6581" height="10.6581" fill="white" transform="translate(373.617 168.26)"/>
</clipPath>
</defs>
</svg>
